<svg xmlns="http://www.w3.org/2000/svg" xmlns:xlink="http://www.w3.org/1999/xlink" viewBox="0 0 663.54 108.84"><defs><linearGradient id="a" x1="120.42" y1="59.9" x2="43.08" y2="127.23" gradientUnits="userSpaceOnUse"><stop offset="0" stop-color="#55c4c7"/><stop offset="1" stop-color="#1e9bce"/></linearGradient></defs><title>l_delta-white</title><path d="M180,75.24v-27l-4.55-1.85,0.32-1.16q11.95-.42,15-0.42,17.66,0,17.66,18.08,0,9.41-5,13.27T187.69,80q-1.32,0-11.9-.42l-0.32-1.16,2.91-1.22a3.13,3.13,0,0,0,1.3-.79A1.89,1.89,0,0,0,180,75.24ZM191.6,47.74h-5.66a1.22,1.22,0,0,0-1.43,1.32V76.82q2.06,0.21,5.29.21,7,0,10.47-2.27,3.28-4,3.28-11.34t-3.07-11.5A10.34,10.34,0,0,0,191.6,47.74Z" transform="translate(-2 -6.11)" fill="#fff"/><path d="M214.33,67.73q0-5.82,3.33-9.07a10.78,10.78,0,0,1,7.77-3.25q4.44,0,6.71,2.62a10.56,10.56,0,0,1,2.27,7.16v1.74l-0.79.79h-14.8a9.81,9.81,0,0,0,2.27,6.5,7.13,7.13,0,0,0,5.58,2.43,16,16,0,0,0,6.53-1.37l0.74,1.37a13.41,13.41,0,0,1-1.53,1.3,11.9,11.9,0,0,1-2.88,1.37,12.16,12.16,0,0,1-4.15.71,10.47,10.47,0,0,1-8-3.25Q214.33,73.55,214.33,67.73Zm10.52-8.94a9.11,9.11,0,0,0-4.07.79,8.88,8.88,0,0,0-1.24,2.54,11.24,11.24,0,0,0-.66,3.33l11.31-.32Q230.2,58.8,224.85,58.8Z" transform="translate(-2 -6.11)" fill="#fff"/><path d="M242.46,75.45v-28l-3.7-.58-0.32-1.16,7.24-2.48,1.06,0.42v33.1l4.18,1.69-0.32,1.16H238.76l-0.32-1.16,2.38-1a3.14,3.14,0,0,0,1.3-.79A1.89,1.89,0,0,0,242.46,75.45Z" transform="translate(-2 -6.11)" fill="#fff"/><path d="M257.37,74.92V58.37h-3.7l-0.32-1.16,4-1.8,2.33-4.92,2,0.37v5h6.29l0.58,0.63-0.53,2-6.34-.21V73.71a4.36,4.36,0,0,0,.79,2.88,3.54,3.54,0,0,0,2.8.93h3L268.53,79A19.75,19.75,0,0,1,262.66,80a5.18,5.18,0,0,1-3.91-1.43A5.11,5.11,0,0,1,257.37,74.92Z" transform="translate(-2 -6.11)" fill="#fff"/><path d="M284.76,78a12.67,12.67,0,0,1-6.29,2,5.82,5.82,0,0,1-4.52-1.82,6.63,6.63,0,0,1-1.67-4.65,4.78,4.78,0,0,1,2.78-4.36q2.78-1.53,9.75-2l0.05-3.44A5.66,5.66,0,0,0,283.73,60a4,4,0,0,0-3.25-1.45,12.18,12.18,0,0,0-3.6.48l-0.42,4-1.27.37-2.91-4.12a12.77,12.77,0,0,1,3.49-2.59,11.43,11.43,0,0,1,5.55-1.27q7.88,0,7.88,9.57l-0.26,11.79L292.58,78l-0.32,1.16-4.49.85-1.06-.42L285,78.15Zm-7.19-2.33a4.63,4.63,0,0,0,2.83.9,14.49,14.49,0,0,0,4.31-.9l0.11-6.13Q278,70,276.4,71.91a3.6,3.6,0,0,0-.05.69A3.63,3.63,0,0,0,277.57,75.71Z" transform="translate(-2 -6.11)" fill="#fff"/><path d="M318.17,49.65V76.88l11.74-.21L332.45,72,334,72.38v7.24H309.45l-0.32-1.16L312,77.25a3.13,3.13,0,0,0,1.3-.79,1.89,1.89,0,0,0,.34-1.22v-27l-4.55-1.85,0.32-1.16h13l0.32,1.16-2.91,1.22a3.15,3.15,0,0,0-1.3.79A1.88,1.88,0,0,0,318.17,49.65Z" transform="translate(-2 -6.11)" fill="#fff"/><path d="M338.16,67.73q0-5.82,3.33-9.07a10.78,10.78,0,0,1,7.77-3.25q4.44,0,6.71,2.62a10.56,10.56,0,0,1,2.27,7.16v1.74l-0.79.79h-14.8a9.81,9.81,0,0,0,2.27,6.5,7.13,7.13,0,0,0,5.58,2.43A16,16,0,0,0,357,75.29l0.74,1.37a13.41,13.41,0,0,1-1.53,1.3,11.9,11.9,0,0,1-2.88,1.37,12.16,12.16,0,0,1-4.15.71,10.47,10.47,0,0,1-8-3.25Q338.16,73.55,338.16,67.73Zm10.52-8.94a9.11,9.11,0,0,0-4.07.79,8.88,8.88,0,0,0-1.24,2.54,11.24,11.24,0,0,0-.66,3.33L354,65.14Q354,58.8,348.68,58.8Z" transform="translate(-2 -6.11)" fill="#fff"/><path d="M376,78a12.67,12.67,0,0,1-6.29,2,5.82,5.82,0,0,1-4.52-1.82,6.63,6.63,0,0,1-1.67-4.65,4.78,4.78,0,0,1,2.78-4.36q2.78-1.53,9.75-2l0.05-3.44A5.66,5.66,0,0,0,375,60a4,4,0,0,0-3.25-1.45,12.18,12.18,0,0,0-3.6.48l-0.42,4-1.27.37-2.91-4.12A12.77,12.77,0,0,1,367,56.68a11.43,11.43,0,0,1,5.55-1.27q7.88,0,7.88,9.57l-0.26,11.79L383.84,78l-0.32,1.16L379,80,378,79.63l-1.69-1.48Zm-7.19-2.33a4.63,4.63,0,0,0,2.83.9,14.49,14.49,0,0,0,4.31-.9l0.11-6.13q-6.77.37-8.41,2.33a3.6,3.6,0,0,0-.05.69A3.63,3.63,0,0,0,368.82,75.71Z" transform="translate(-2 -6.11)" fill="#fff"/><path d="M404.57,78a15,15,0,0,1-7.72,2,7.78,7.78,0,0,1-6.74-3.54,15.65,15.65,0,0,1-2.46-9.12q0-5.58,3.36-8.78a11.88,11.88,0,0,1,8.54-3.2,25.49,25.49,0,0,1,4.18.32l0.74,0.16V47.48l-3.7-.58-0.32-1.16,7.24-2.48,1.06,0.42v33.1l3.65,1.69-0.32,1.16-5,.42-0.74-.32-1.53-1.59Zm-0.11-18.51a15.91,15.91,0,0,0-5.21-.74,14.48,14.48,0,0,0-5.16.79q-2,2.59-2,7.56,0,9.25,7,9.25a22,22,0,0,0,5.34-.69V59.54Z" transform="translate(-2 -6.11)" fill="#fff"/><path d="M416.57,67.73q0-5.82,3.33-9.07a10.78,10.78,0,0,1,7.77-3.25q4.44,0,6.71,2.62a10.56,10.56,0,0,1,2.27,7.16v1.74l-0.79.79h-14.8a9.81,9.81,0,0,0,2.27,6.5,7.13,7.13,0,0,0,5.58,2.43,16,16,0,0,0,6.53-1.37l0.74,1.37a13.41,13.41,0,0,1-1.53,1.3,11.9,11.9,0,0,1-2.88,1.37,12.16,12.16,0,0,1-4.15.71,10.47,10.47,0,0,1-8-3.25Q416.57,73.55,416.57,67.73Zm10.52-8.94a9.11,9.11,0,0,0-4.07.79,8.88,8.88,0,0,0-1.24,2.54,11.24,11.24,0,0,0-.66,3.33l11.31-.32Q432.43,58.8,427.09,58.8Z" transform="translate(-2 -6.11)" fill="#fff"/><path d="M455.38,58.9a16,16,0,0,0-3.25.4,15.83,15.83,0,0,0-2.62.71V76.77l4.71,1.69-0.32,1.16H441.52l-0.32-1.16,2.38-1a3.14,3.14,0,0,0,1.3-.79,1.89,1.89,0,0,0,.34-1.22V59.64l-3.7-.58-0.32-1.16L448,55.41l1.06,0.42,0.21,2,0.21,0.11a13.18,13.18,0,0,1,3-1.45,18.09,18.09,0,0,1,3.41-1,6.91,6.91,0,0,1,2.38,1.35,6.75,6.75,0,0,1,1.74,1.93l-3.44,4.6-1.27-.37v-4Z" transform="translate(-2 -6.11)" fill="#fff"/><path d="M475.84,58.8a9.89,9.89,0,0,0-3.73-.53,5.13,5.13,0,0,0-3.78,1.27,3.16,3.16,0,0,0-.48,1.75q0,2.22,2.7,3.23l5.39,1.9A7.72,7.72,0,0,1,479.59,69,6.58,6.58,0,0,1,481,73.12a5.91,5.91,0,0,1-2.54,5.13,10,10,0,0,1-5.95,1.8,12.83,12.83,0,0,1-5.71-1.14,10.22,10.22,0,0,1-3.36-2.41l2.7-4.39,1.32,0.37L467.64,76a9.39,9.39,0,0,0,4.71,1.06q4.81,0,4.81-3.28a2.76,2.76,0,0,0-.85-2.12,7.58,7.58,0,0,0-2.75-1.43l-4.86-1.59a6.41,6.41,0,0,1-3.33-2.43,6.56,6.56,0,0,1-1.16-3.81,6,6,0,0,1,2.64-5.18A10.43,10.43,0,0,1,473,55.41a9.44,9.44,0,0,1,4,.85,7.67,7.67,0,0,1,3.49,2.48l-2.91,4.12-1.27-.37Z" transform="translate(-2 -6.11)" fill="#fff"/><path d="M503.81,64.14a5.2,5.2,0,0,0-1.24-3.89,5.63,5.63,0,0,0-4-1.19,22.63,22.63,0,0,0-5.5.69v17l4.18,1.69-0.32,1.16H485.09l-0.32-1.16,2.38-1a3.14,3.14,0,0,0,1.3-.79,1.89,1.89,0,0,0,.34-1.22v-28l-3.7-.58-0.32-1.16,7.14-2.48L493,43.67V57.42a15.38,15.38,0,0,1,7.51-2q7.61,0,7.61,8.09V76.77l4.18,1.69-0.32,1.16H500.1l-0.32-1.16,2.38-1a3.13,3.13,0,0,0,1.3-.79,1.89,1.89,0,0,0,.34-1.22V64.14Z" transform="translate(-2 -6.11)" fill="#fff"/><path d="M519,75.45V59.64l-3.7-.58L515,57.9l7.24-2.48,1.06,0.42V76.77l4.18,1.69-0.32,1.16H515.33L515,78.46l2.38-1a3.14,3.14,0,0,0,1.3-.79A1.89,1.89,0,0,0,519,75.45Zm1.88-25.54A2.8,2.8,0,0,1,518,47a2.88,2.88,0,0,1,.82-2.09,2.75,2.75,0,0,1,2.06-.85A2.89,2.89,0,0,1,523.84,47a2.75,2.75,0,0,1-.85,2.06A2.89,2.89,0,0,1,520.91,49.91Z" transform="translate(-2 -6.11)" fill="#fff"/><path d="M545.63,55.41A8.1,8.1,0,0,1,552.74,59a15.73,15.73,0,0,1,2.46,9.12,11.51,11.51,0,0,1-3.36,8.75,11.67,11.67,0,0,1-8.38,3.2,28.69,28.69,0,0,1-5.08-.48v9.25l4.18,1.69-0.32,1.16H530.4l-0.32-1.16,2.38-1a3.15,3.15,0,0,0,1.3-.79,1.89,1.89,0,0,0,.34-1.22V59.64l-3.7-.58-0.32-1.16,6.82-2.48L538,55.83l0.11,1.48,0.21,0.11A14.9,14.9,0,0,1,545.63,55.41Zm-7.24,20.51a15.88,15.88,0,0,0,5.21.74,14.47,14.47,0,0,0,5.16-.79q2-2.59,2-7.56,0-9.25-7-9.25a22,22,0,0,0-5.34.69V75.93Z" transform="translate(-2 -6.11)" fill="#fff"/><path d="M566.49,76.22a8.3,8.3,0,0,1,.56,3.17,6.14,6.14,0,0,1-1.56,3.78,12.22,12.22,0,0,1-3.83,3.17l-0.85-1q3-2.38,3-4.76a4.77,4.77,0,0,0-2.43-4l-0.16-1.06,3-1.37h1.06A6.23,6.23,0,0,1,566.49,76.22Z" transform="translate(-2 -6.11)" fill="#fff"/><path d="M594.8,49.65v27l4.55,1.85L599,79.63h-13l-0.32-1.16,2.91-1.22a3.13,3.13,0,0,0,1.3-.79,1.89,1.89,0,0,0,.34-1.22v-27l-4.55-1.85,0.32-1.16h13l0.32,1.16-2.91,1.22a3.15,3.15,0,0,0-1.3.79A1.88,1.88,0,0,0,594.8,49.65Z" transform="translate(-2 -6.11)" fill="#fff"/><path d="M622.77,64.14a5.2,5.2,0,0,0-1.24-3.89,5.63,5.63,0,0,0-4-1.19,22.63,22.63,0,0,0-5.5.69v17l4.18,1.69-0.32,1.16H604.05l-0.32-1.16,2.38-1a3.14,3.14,0,0,0,1.3-.79,1.89,1.89,0,0,0,.34-1.22V59.64l-3.7-.58-0.32-1.16,6.82-2.48,1.06,0.42,0.11,1.48,0.21,0.11a15.38,15.38,0,0,1,7.51-2q7.61,0,7.61,8.09V76.77l4.18,1.69-0.32,1.16H619.07l-0.32-1.16,2.38-1a3.13,3.13,0,0,0,1.3-.79,1.89,1.89,0,0,0,.34-1.22V64.14Z" transform="translate(-2 -6.11)" fill="#fff"/><path d="M649.2,59a15.47,15.47,0,0,0-3.7-.32,9.62,9.62,0,0,0-4.34.9q-2,2.54-2,7.24t2.22,7.27a7.21,7.21,0,0,0,5.71,2.56,15.47,15.47,0,0,0,6.5-1.37l0.74,1.37A13.41,13.41,0,0,1,652.8,78a11.9,11.9,0,0,1-2.88,1.37,12.16,12.16,0,0,1-4.15.71,10.47,10.47,0,0,1-8-3.25q-3.07-3.25-3.07-9.07t3.36-9.07a11.3,11.3,0,0,1,8.17-3.25,9.56,9.56,0,0,1,4.23.9A8.89,8.89,0,0,1,653,57.9a6.84,6.84,0,0,1,1,1.38L650.9,63.4,649.63,63Z" transform="translate(-2 -6.11)" fill="#fff"/><path d="M662.61,80a2.8,2.8,0,0,1-2.88-2.88,2.88,2.88,0,0,1,.82-2.09,2.75,2.75,0,0,1,2.06-.85,2.89,2.89,0,0,1,2.93,2.93,2.75,2.75,0,0,1-.85,2.06A2.89,2.89,0,0,1,662.61,80Z" transform="translate(-2 -6.11)" fill="#fff"/><path d="M80.95,6.11L2,114.94H158.45ZM40.83,106.46H13.89l2.21-3.05H42.21ZM45.37,96.4H20.85l2.68-3.7H47Zm4.89-10.85H28.54l3.14-4.35H52.22ZM55.15,74.7H36.94l3.61-5H57.4Zm5.24-11.63h-15l4.08-5.65H62.94Zm5.24-11.63H53.75l4.55-6.3H68.47Zm5.24-11.63H62.15l5-6.94H74Zm5.24-11.63H70.56L76,20.58h3.5Z" transform="translate(-2 -6.11)" fill="url(#a)"/></svg>